<?xml version="1.0" encoding="UTF-8" standalone="no"?>
<!-- Created with Inkscape (http://www.inkscape.org/) -->

<svg
   version="1.1"
   id="svg2"
   width="856.13501"
   height="842.48901"
   viewBox="0 0 856.13501 842.48901"
   sodipodi:docname="CrystalCatStudios.svg"
   xmlns:inkscape="http://www.inkscape.org/namespaces/inkscape"
   xmlns:sodipodi="http://sodipodi.sourceforge.net/DTD/sodipodi-0.dtd"
   xmlns="http://www.w3.org/2000/svg"
   xmlns:svg="http://www.w3.org/2000/svg">
  <defs
     id="defs6" />
  <sodipodi:namedview
     id="namedview4"
     pagecolor="#505050"
     bordercolor="#eeeeee"
     borderopacity="1"
     inkscape:showpageshadow="0"
     inkscape:pageopacity="0"
     inkscape:pagecheckerboard="0"
     inkscape:deskcolor="#505050"
     showgrid="false" />
  <g
     inkscape:groupmode="layer"
     id="layer1"
     inkscape:label="Layer 1"
     transform="translate(-179.89391,0.49651931)">
    <g
       id="g56"
       transform="matrix(1.3333333,0,0,1.3333333,558.16211,-0.49657056)">
      <g
         id="g58"
         transform="matrix(5.258243,0,0,5.258243,-63.402243,-37.028698)">
        <g
           id="g60">
          <path
             d="m 45.367,98.004 c -0.90234,0 -1.8086,-0.04687 -2.6992,-0.17578 l -0.35547,-0.05078 -0.06641,-0.35156 c -0.10938,-0.58203 0.07422,-0.96875 0.20703,-1.2461 0.07813,-0.16406 0.12109,-0.26563 0.12891,-0.37891 0.0078,-0.11719 -0.02344,-0.20312 -0.0625,-0.32031 -0.125,-0.37109 -0.21094,-0.78516 0.27344,-1.3906 0.14844,-0.1875 0.33984,-0.34375 0.55469,-0.48047 -0.22656,0.0039 -0.45703,0.0078 -0.67969,0.01172 -0.94922,0.01563 -1.875,0.02734 -2.8359,0 -0.66016,-0.02344 -1.3398,-0.04687 -1.9727,0.01953 -0.65625,0.06641 -0.76172,0.18359 -1.1367,0.61328 -0.15234,0.17578 -0.33594,0.37891 -0.58594,0.62109 -1.0625,1.0234 -2.8672,1.6914 -5.5156,2.0469 -1,0.13281 -1.9375,-0.11328 -2.8438,-0.35547 -1.0078,-0.26562 -1.957,-0.51562 -2.8984,-0.21094 l -0.52344,0.17188 -0.12109,-0.53516 C 24.16001,95.66029 24.1561,95.33607 24.2147,95.0431 22.6405,95.02357 21.2069,94.82826 19.5663,94.42982 l -0.37109,-0.08984 -0.0078,-0.38281 c -0.0039,-0.07031 -0.0039,-0.12891 -0.0078,-0.1875 -0.59375,-0.46484 -0.73047,-1.4297 -0.57813,-2.2344 0.14844,-0.79688 0.25391,-0.97266 0.80859,-1.3281 l 0.24609,-0.16016 c 0.38281,-0.26172 0.79297,-0.47266 1.1875,-0.67969 0.01563,-0.0078 0.03125,-0.01563 0.04687,-0.02344 -0.69531,-0.02734 -1.3711,-0.15234 -1.9727,-0.53516 -0.72656,-0.46094 -1.2656,-1.1094 -1.7891,-1.7344 -0.38281,-0.45703 -0.74219,-0.89062 -1.1602,-1.2344 -2.5234,-2.0898 -3.6289,-4.4805 -3.8047,-8.25 -0.09766,-2.0391 -0.21484,-4.5781 0.08984,-6.7891 0.10938,-0.78516 0.33203,-1.5234 0.54688,-2.2383 0.16406,-0.55078 0.32422,-1.0664 0.42578,-1.5938 0.17969,-0.92188 0.15625,-2.0508 0.10547,-3.0312 -0.0078,-0.11719 -0.01953,-0.24609 -0.02734,-0.38672 -0.07031,-0.78516 -0.15625,-1.7617 0.47266,-2.2422 0.36719,-0.28125 0.875,-0.30859 1.5117,-0.07422 2.375,0.86328 2.1719,4.6289 2.0195,7.375 -0.04297,0.77344 -0.07813,1.4375 -0.05078,1.9062 0.22266,3.7578 0.98438,6.5781 2.2695,8.3867 0.91406,1.2891 1.8867,2.1172 2.7344,2.3281 0.95703,0.24219 2.0742,0.23047 2.2109,-0.17188 0.17188,-0.51562 -0.42578,-1.9258 -0.74219,-2.6836 -0.125,-0.29688 -0.23438,-0.55469 -0.30469,-0.75781 L 23.14421,76.8124 C 22.85515,75.98818 22.56609,75.1718 22.2614,74.3827 l -0.15234,-0.39062 c -1.0664,-2.75 -2.168,-5.5938 -2.8828,-8.4453 -0.58984,-2.3594 -1.125,-4.8438 -0.64453,-7.0195 0.1875,-0.84766 0.73828,-1.8672 1.4062,-2.5977 0.20703,-0.22656 0.39844,-0.33203 0.53516,-0.40625 0.14453,-0.07813 0.15625,-0.08594 0.21484,-0.23828 0.09375,-0.26172 -0.01172,-0.64062 -0.11719,-1.0078 C 20.56215,54.07022 20.50746,53.871 20.47621,53.6835 19.9098,50.1054 19.6559,47.3124 19.6559,44.6288 c 0,-0.51953 -0.01172,-1.0469 -0.02344,-1.5781 -0.03125,-1.4883 -0.06641,-3.0312 0.15234,-4.4844 0.09766,-0.64844 0.21484,-1.3164 0.33203,-1.9922 0.25391,-1.4609 0.51953,-2.9727 0.60156,-4.3945 0.01563,-0.28516 -0.0078,-0.60547 -0.03125,-0.9375 -0.05078,-0.70703 -0.10547,-1.5117 0.18359,-2.1641 0.23438,-0.53516 0.68359,-0.89844 1.1133,-1.2461 0.28125,-0.23047 0.54688,-0.44531 0.73438,-0.69141 0.59375,-0.78906 0.76562,-1.7695 0.94141,-2.8047 0.12109,-0.69141 0.24219,-1.4023 0.50391,-2.0625 l -0.12891,-0.14453 c 0.12891,-0.11719 0.25781,-0.25391 0.38281,-0.41016 0.03516,-0.0625 0.07031,-0.125 0.10938,-0.18359 l 0.02344,0.01563 c 0.34766,-0.46094 0.67969,-1.0312 0.98047,-1.5508 0.15625,-0.27344 0.30859,-0.53516 0.45703,-0.77344 l 0.40625,-0.65234 c 1.1367,-1.8438 2.207,-3.5859 4.2344,-4.9336 2.1367,-1.418 4.7969,-2.6172 7.2969,-3.293 1.1992,-0.32422 2.3672,-0.33984 3.4961,-0.35547 0.46484,-0.00781 0.93359,-0.011719 1.4102,-0.039063 1.7148,-0.097656 3.7266,-0.60156 5.4727,-1.0664 0.64844,-0.17188 1.3477,-0.44922 2.0859,-0.74219 1.4141,-0.55859 2.8477,-1.125 4.2656,-1.1016 l 0.38672,0.011719 0.08984,0.375 c 0.49219,2.1172 0.14844,4.0898 -1.0234,5.8711 0.91406,0.08203 1.832,0.10156 2.7266,0.11719 1.3438,0.02734 2.7305,0.05469 4.1094,0.30078 l 1.2812,0.23047 -1.1055,0.6875 c -1.0586,0.65625 -2.375,1.5391 -3.168,2.5234 -0.77344,0.95703 -1.5,1.6328 -2.2695,2.3477 l -0.26172,0.24219 c 0.17578,0.21094 0.38281,0.39453 0.60156,0.58594 0.45312,0.40234 0.97266,0.85937 1.2305,1.6445 0.28125,0.85938 0.26953,1.7812 0.25781,2.6719 l -0.0039,0.53125 c 0,0.32031 -0.01172,0.65234 -0.02344,0.98438 -0.02344,0.63281 -0.04687,1.2891 0.01953,1.8867 0.05469,0.51562 0.26562,0.71484 0.58594,1.0195 0.26172,0.24609 0.58594,0.55469 0.79688,1.0703 0.71875,1.7773 -1.418,4.2188 -2.5039,5.0547 -1.3477,1.043 -3.4883,0.83984 -5.375,0.66016 -0.62891,-0.05859 -1.2266,-0.11719 -1.7188,-0.11719 -0.23828,0 -0.49219,-0.01563 -0.75391,-0.03516 -1.0117,-0.06641 -1.6953,-0.07031 -1.957,0.46094 -0.29297,0.59375 -0.06641,0.82031 0.71484,1.3711 0.23438,0.16406 0.46875,0.33203 0.66406,0.51563 1.0586,0.98437 1.7383,1.8984 2.1406,2.8672 0.27344,0.66406 0.35547,1.3281 0.4375,1.9727 0.05469,0.44141 0.10547,0.86328 0.21875,1.2617 0.58203,0.21094 1.0547,0.80469 1.4805,1.332 0.1875,0.23047 0.35938,0.45312 0.52734,0.60938 0.36719,0.34766 0.74219,0.6875 1.1133,1.0312 0.64062,0.58984 1.2812,1.1758 1.9062,1.7812 0.35547,0.34766 0.73047,0.69531 1.1133,1.0547 1.0938,1.0156 2.2227,2.0664 3.0898,3.2148 0.39844,0.52734 0.82422,1.0625 1.2539,1.5977 0.78906,0.99219 1.6055,2.0195 2.2969,3.0469 0.42578,0.63281 0.91016,1.3828 1.2695,2.1445 0.375,0.79688 0.28516,1.1758 0.10937,1.6641 -0.03125,0.08984 -0.0625,0.17969 -0.09375,0.28125 0.54297,0.03125 1.1211,-0.30859 1.7734,-0.95703 l 0.86719,-0.85938 -0.01563,1.0742 c 1.125,0.47266 2.2656,1.6797 3.2812,2.7539 0.48438,0.51172 0.94141,0.99609 1.3398,1.3438 3.1484,2.7266 5.418,6.0156 6.9375,10.055 0.27734,0.73828 2.1172,8.7578 0.65625,10.516 -0.25781,0.30859 -0.60938,0.45312 -0.99219,0.41016 -0.08203,0.30078 -0.11719,0.71875 -0.14453,1.0547 -0.03516,0.45703 -0.07031,0.89062 -0.19922,1.2344 -0.53906,1.4648 -1.707,2.8477 -2.6211,3.6523 -3.0625,2.7031 -6.7695,3.8711 -9.6562,4.5859 -2.4375,0.60547 -4.5078,1.0625 -7.0547,1.0625 -1.0352,0 -2.0586,-0.0625 -3.0469,-0.125 -1.2109,-0.07422 -2.4648,-0.15234 -3.7188,-0.10938 -0.94922,0.03125 -1.9102,0.10547 -2.875,0.18359 -1.3242,0.11328 -2.6562,0.21484 -3.9844,0.21484 z m -2.1289,-1.1094 c 1.9688,0.22656 4.0273,0.0625 6.0195,-0.08984 0.98047,-0.07422 1.957,-0.15234 2.9219,-0.1875 1.2969,-0.04297 2.5781,0.03516 3.8125,0.10937 0.97656,0.05859 1.9805,0.12109 2.9844,0.12109 2.4375,0 4.3633,-0.42969 6.8125,-1.0352 2.7734,-0.6875 6.332,-1.8047 9.2344,-4.3672 1.0312,-0.91016 1.9531,-2.1875 2.3477,-3.25 0.07813,-0.21484 0.10938,-0.59766 0.14062,-0.96484 0.0625,-0.77344 0.13281,-1.6523 0.69531,-2.1016 l 0.39844,-0.31641 0.28516,0.37109 c 0.91797,-1.207 -0.37109,-8.2539 -0.83984,-9.5039 -1.457,-3.8789 -3.6328,-7.0352 -6.6523,-9.6484 -0.4375,-0.37891 -0.91016,-0.87891 -1.4102,-1.4102 -1.0078,-1.0664 -2.1484,-2.2773 -3.1055,-2.5781 -0.96875,0.8125 -1.9141,1.0625 -2.8242,0.75 l -0.37109,-0.12891 0.03906,-0.39453 c 0.04688,-0.45312 0.15234,-0.75391 0.23438,-0.97266 0.11328,-0.3125 0.15234,-0.41406 -0.07422,-0.89453 -0.32812,-0.70312 -0.78906,-1.4102 -1.1914,-2.0156 -0.66797,-0.99609 -1.4727,-2.0039 -2.2461,-2.9805 -0.43359,-0.54688 -0.86328,-1.0859 -1.2656,-1.6172 -0.81641,-1.0781 -1.9141,-2.0977 -2.9766,-3.0859 -0.39062,-0.35938 -0.76953,-0.71875 -1.1328,-1.0664 -0.61719,-0.60156 -1.25,-1.1836 -1.8867,-1.7617 -0.375,-0.34375 -0.75,-0.6875 -1.1211,-1.0352 -0.20703,-0.19531 -0.41016,-0.44531 -0.625,-0.71484 -0.34375,-0.42969 -0.8125,-1.0156 -1.1289,-1.0391 l -0.33203,-0.02734 -0.10938,-0.30469 c -0.20703,-0.57812 -0.27734,-1.1641 -0.34766,-1.7305 -0.07422,-0.60547 -0.14453,-1.1719 -0.36719,-1.7109 -0.34375,-0.83594 -0.94922,-1.6328 -1.8984,-2.5195 -0.16406,-0.15234 -0.36328,-0.29297 -0.5625,-0.42969 -0.69141,-0.48438 -1.7344,-1.2227 -1.0352,-2.6328 0.57812,-1.168 1.8789,-1.0859 2.9219,-1.0156 0.23438,0.01563 0.46875,0.03125 0.6875,0.03125 0.53906,0 1.1562,0.05859 1.8125,0.12109 1.7031,0.16016 3.6367,0.34375 4.6719,-0.45313 0.97266,-0.75391 2.625,-2.8086 2.1875,-3.8906 -0.12891,-0.3125 -0.32422,-0.50391 -0.55469,-0.71875 -0.35547,-0.33594 -0.79688,-0.75391 -0.89062,-1.6367 -0.07031,-0.67188 -0.04687,-1.3594 -0.02344,-2.0273 0.01172,-0.32031 0.02344,-0.63672 0.02344,-0.94922 l 0.0039,-0.54688 c 0.01172,-0.80859 0.02344,-1.6445 -0.20703,-2.3477 -0.17578,-0.52734 -0.53125,-0.84375 -0.94141,-1.207 -0.34766,-0.30859 -0.73828,-0.65234 -1.0273,-1.1562 l -0.19531,-0.34375 0.86719,-0.8125 c 0.77344,-0.71875 1.4414,-1.3398 2.168,-2.2422 0.60547,-0.75 1.4492,-1.4258 2.2812,-2 -0.86328,-0.07813 -1.7344,-0.09375 -2.6367,-0.11328 -1.1953,-0.02344 -2.4336,-0.04687 -3.6836,-0.22656 l -0.87109,-0.125 0.55078,-0.6875 c 1.3125,-1.6289 1.7812,-3.3789 1.4297,-5.3359 -1.0859,0.074219 -2.3008,0.55469 -3.4766,1.0195 -0.76953,0.30469 -1.4922,0.58984 -2.1953,0.77734 -1.7969,0.47656 -3.8633,0.99609 -5.6758,1.0977 -0.49219,0.02734 -0.97656,0.03516 -1.4531,0.03906 -1.1172,0.01563 -2.1719,0.03125 -3.25,0.32031 -2.3633,0.63672 -4.9805,1.8164 -7.0039,3.1602 -1.8438,1.2227 -2.8125,2.8008 -3.9336,4.6211 l -0.40625,0.66016 c -0.14453,0.23047 -0.28906,0.48437 -0.44141,0.74609 -0.34375,0.58984 -0.71484,1.2344 -1.1406,1.7695 -0.33594,0.64453 -0.47266,1.418 -0.60937,2.2305 -0.19141,1.1094 -0.39063,2.2578 -1.1328,3.2383 -0.25781,0.34375 -0.58594,0.60938 -0.90234,0.86328 -0.35547,0.28906 -0.69141,0.5625 -0.82812,0.875 -0.1875,0.42969 -0.14453,1.0703 -0.10156,1.6914 0.02344,0.35547 0.05078,0.72656 0.03125,1.0625 -0.08594,1.4805 -0.35547,3.0195 -0.61328,4.5117 -0.11719,0.66797 -0.23047,1.3281 -0.32812,1.9688 -0.20313,1.3711 -0.17188,2.8672 -0.14063,4.3164 0.01172,0.53906 0.02344,1.0742 0.02344,1.6016 0,2.6328 0.25,5.375 0.80859,8.8984 0.02344,0.14844 0.07031,0.30859 0.11719,0.47656 0.13281,0.47266 0.30078,1.0586 0.09375,1.6211 -0.18359,0.50391 -0.46484,0.66016 -0.67188,0.77344 -0.10547,0.05859 -0.18359,0.10156 -0.28125,0.20703 -0.54688,0.60156 -1.0156,1.4609 -1.168,2.1367 -0.43359,1.9648 0.07812,4.3203 0.64062,6.5625 0.69922,2.7891 1.7891,5.6055 2.8438,8.3242 l 0.15234,0.39062 c 0.30859,0.80078 0.60156,1.6289 0.89453,2.4609 l 0.28125,0.80078 c 0.06641,0.18359 0.16797,0.42578 0.28516,0.69922 0.58203,1.3789 1.0391,2.582 0.76953,3.3906 -0.38281,1.1445 -2.0078,1.1758 -3.4023,0.82812 -1.3828,-0.34766 -2.5625,-1.6719 -3.3047,-2.7227 -1.3945,-1.9648 -2.2188,-4.9609 -2.4492,-8.9062 -0.03125,-0.52344 0.0078,-1.2188 0.05078,-2.0195 0.125,-2.2969 0.31641,-5.7695 -1.3633,-6.3828 -0.35156,-0.12891 -0.51953,-0.10547 -0.5625,-0.07031 -0.19141,0.14453 -0.11719,1 -0.08594,1.3633 0.01172,0.15234 0.02734,0.29688 0.03125,0.42578 0.05078,1.043 0.07812,2.25 -0.12109,3.2773 -0.11328,0.57422 -0.28516,1.1445 -0.44922,1.6914 -0.20312,0.67578 -0.41797,1.375 -0.51562,2.0859 -0.29297,2.1172 -0.17578,4.6055 -0.07813,6.6055 0.16406,3.5039 1.1328,5.6133 3.4453,7.5273 0.48828,0.40234 0.89453,0.89062 1.2891,1.3633 0.49609,0.59375 0.96484,1.1523 1.5586,1.5312 0.68359,0.4375 1.6133,0.40234 2.5977,0.36719 0.20312,-0.0078 0.41016,-0.01563 0.60938,-0.01953 l 1.3516,-0.01953 -1.0156,0.89453 c -0.52344,0.46094 -1.1172,0.76953 -1.6953,1.0664 -0.38672,0.19922 -0.75,0.38672 -1.082,0.61328 l -0.26953,0.17578 c -0.27344,0.17578 -0.27344,0.17578 -0.36719,0.67188 -0.10938,0.58984 0.02344,1.207 0.27734,1.3008 l 0.39062,0.14063 -0.0625,0.39062 c 1.668,0.38281 3.1367,0.53125 4.8242,0.49219 l 1.2305,-0.02734 -0.86328,0.87891 c -0.10547,0.10547 -0.16016,0.23828 -0.1875,0.36719 0.99219,-0.14844 1.9297,0.10156 2.8438,0.34375 0.84766,0.22266 1.6484,0.4375 2.4531,0.32812 2.3945,-0.31641 4.0625,-0.91406 4.9531,-1.7734 0.22656,-0.21875 0.38672,-0.40234 0.52734,-0.55859 0.47266,-0.53516 0.78516,-0.84375 1.7852,-0.94922 0.69531,-0.07031 1.4141,-0.05078 2.1055,-0.02344 0.94141,0.03125 1.8555,0.01953 2.7852,0 1.3438,-0.02344 2.7305,-0.05078 4.0781,0.04687 l 3.2344,0.23438 -3.1523,0.75391 c -0.19531,0.04687 -0.4375,0.09375 -0.69922,0.14062 -0.83984,0.15234 -2.1094,0.39062 -2.5312,0.91406 -0.18359,0.23047 -0.17188,0.25391 -0.10938,0.44531 0.05469,0.16406 0.13281,0.39453 0.11328,0.70703 -0.01953,0.3125 -0.13281,0.55078 -0.22266,0.74219 -0.0625,0.11328 -0.10547,0.20313 -0.12891,0.29297 z"
             style="fill:#ffffff;fill-opacity:1;fill-rule:nonzero;stroke:none"
             id="path62" />
        </g>
      </g>
    </g>
    <g
       id="g24"
       transform="matrix(1.3333333,0,0,1.3333333,176.81799,343.81074)">
      <g
         id="g26"
         transform="translate(0,232.6369)">
        <g
           id="g28"
           transform="translate(0,-43.495922)">
          <g
             id="g30"
             transform="matrix(1,0,0,-1,0,1200)">
            <text
               xml:space="preserve"
               transform="matrix(1,0,0,-1,0,1018.767)"
               style="font-variant:normal;font-weight:normal;font-size:181.233px;font-family:Lobster;-inkscape-font-specification:Lobster-Regular;writing-mode:lr-tb;fill:#ffffff;fill-opacity:1;fill-rule:nonzero;stroke:none"
               id="text34"><tspan
                 x="0 103.27096 151.67645 243.17789 338.30753 386.71301"
                 y="0"
                 sodipodi:role="line"
                 id="tspan32">Studio</tspan></text>
          </g>
        </g>
      </g>
      <g
         id="g36"
         transform="translate(0,28.533232)">
        <g
           id="g38"
           transform="translate(0,-29.140322)">
          <g
             id="g40"
             transform="matrix(1,0,0,-1,0,1200)">
            <text
               xml:space="preserve"
               transform="matrix(1,0,0,-1,0,1078.582)"
               style="font-variant:normal;font-weight:normal;font-size:121.418px;font-family:Lobster;-inkscape-font-specification:Lobster-Regular;writing-mode:lr-tb;fill:#ffffff;fill-opacity:1;fill-rule:nonzero;stroke:none"
               id="text44"><tspan
                 x="0 60.353287 106.00362 164.99332 211.35507 243.78459 307.63577"
                 y="0"
                 sodipodi:role="line"
                 id="tspan42">Crystal</tspan></text>
          </g>
        </g>
      </g>
      <g
         id="g46"
         transform="translate(359.09613,28.533232)">
        <g
           id="g48"
           transform="translate(0,-29.140322)">
          <g
             id="g50"
             transform="matrix(1,0,0,-1,0,1200)">
            <text
               xml:space="preserve"
               transform="matrix(1,0,0,-1,0,1078.582)"
               style="font-variant:normal;font-weight:normal;font-size:121.418px;font-family:Lobster;-inkscape-font-specification:Lobster-Regular;writing-mode:lr-tb;fill:#ffffff;fill-opacity:1;fill-rule:nonzero;stroke:none"
               id="text54"><tspan
                 x="0 60.353287 124.20446"
                 y="0"
                 sodipodi:role="line"
                 id="tspan52">Cat</tspan></text>
          </g>
        </g>
      </g>
    </g>
  </g>
</svg>
